<?xml version="1.0" encoding="UTF-8"?>
<svg xmlns="http://www.w3.org/2000/svg" xmlns:xlink="http://www.w3.org/1999/xlink" width="3840" height="2160" viewBox="0 0 3840 2160">
<defs>
<g>
<g id="glyph-0-0">
<path d="M 2 0 L 2 -0.5625 L 2.3125 -0.5625 C 2.601562 -0.5625 2.859375 -0.609375 3.078125 -0.703125 C 3.296875 -0.804688 3.40625 -1.054688 3.40625 -1.453125 L 3.40625 -8.84375 L 2.125 -8.84375 C 1.726562 -8.84375 1.453125 -8.734375 1.296875 -8.515625 C 1.148438 -8.304688 1.0625 -8.050781 1.03125 -7.75 L 0.953125 -7.1875 L 0.265625 -7.1875 L 0.328125 -9.515625 L 7.84375 -9.515625 L 7.90625 -7.1875 L 7.203125 -7.1875 L 7.140625 -7.75 C 7.109375 -8.050781 7.015625 -8.304688 6.859375 -8.515625 C 6.710938 -8.734375 6.4375 -8.84375 6.03125 -8.84375 L 4.75 -8.84375 L 4.75 -1.515625 C 4.75 -1.097656 4.851562 -0.832031 5.0625 -0.71875 C 5.28125 -0.613281 5.539062 -0.5625 5.84375 -0.5625 L 6.140625 -0.5625 L 6.140625 0 Z "/>
</g>
<g id="glyph-0-1">
<path d="M 0.234375 0 L 0.234375 -0.5625 L 0.34375 -0.5625 C 0.644531 -0.5625 0.898438 -0.613281 1.109375 -0.71875 C 1.328125 -0.832031 1.4375 -1.097656 1.4375 -1.515625 L 1.4375 -8.65625 C 1.4375 -9.050781 1.328125 -9.300781 1.109375 -9.40625 C 0.890625 -9.507812 0.632812 -9.5625 0.34375 -9.5625 L 0.234375 -9.5625 L 0.234375 -10.125 L 2.6875 -10.125 L 2.6875 -7.203125 C 2.6875 -7.035156 2.679688 -6.863281 2.671875 -6.6875 C 2.671875 -6.519531 2.664062 -6.375 2.65625 -6.25 C 2.644531 -6.125 2.640625 -6.0625 2.640625 -6.0625 L 2.703125 -6.0625 C 3.109375 -6.875 3.765625 -7.28125 4.671875 -7.28125 C 5.429688 -7.28125 6.015625 -7.070312 6.421875 -6.65625 C 6.828125 -6.238281 7.03125 -5.578125 7.03125 -4.671875 L 7.03125 -1.515625 C 7.03125 -1.097656 7.125 -0.832031 7.3125 -0.71875 C 7.5 -0.613281 7.742188 -0.5625 8.046875 -0.5625 L 8.09375 -0.5625 L 8.09375 0 L 5.765625 0 L 5.765625 -4.59375 C 5.765625 -5.175781 5.65625 -5.625 5.4375 -5.9375 C 5.226562 -6.257812 4.851562 -6.421875 4.3125 -6.421875 C 3.757812 -6.421875 3.347656 -6.222656 3.078125 -5.828125 C 2.816406 -5.441406 2.6875 -4.921875 2.6875 -4.265625 L 2.6875 -1.453125 C 2.6875 -1.054688 2.796875 -0.804688 3.015625 -0.703125 C 3.234375 -0.609375 3.488281 -0.5625 3.78125 -0.5625 L 3.828125 -0.5625 L 3.828125 0 Z "/>
</g>
<g id="glyph-0-2">
<path d="M 3.828125 0.140625 C 2.859375 0.140625 2.097656 -0.175781 1.546875 -0.8125 C 1.003906 -1.457031 0.734375 -2.359375 0.734375 -3.515625 C 0.734375 -4.765625 0.988281 -5.703125 1.5 -6.328125 C 2.019531 -6.960938 2.75 -7.28125 3.6875 -7.28125 C 4.550781 -7.28125 5.226562 -7.007812 5.71875 -6.46875 C 6.21875 -5.9375 6.46875 -5.144531 6.46875 -4.09375 L 6.46875 -3.484375 L 2.03125 -3.484375 C 2.039062 -2.515625 2.210938 -1.804688 2.546875 -1.359375 C 2.878906 -0.921875 3.367188 -0.703125 4.015625 -0.703125 C 4.472656 -0.703125 4.863281 -0.796875 5.1875 -0.984375 C 5.507812 -1.179688 5.753906 -1.398438 5.921875 -1.640625 C 5.984375 -1.609375 6.039062 -1.550781 6.09375 -1.46875 C 6.144531 -1.394531 6.171875 -1.300781 6.171875 -1.1875 C 6.171875 -1.007812 6.085938 -0.816406 5.921875 -0.609375 C 5.753906 -0.410156 5.492188 -0.234375 5.140625 -0.078125 C 4.796875 0.0664062 4.359375 0.140625 3.828125 0.140625 Z M 5.125 -4.203125 C 5.125 -4.910156 5.015625 -5.476562 4.796875 -5.90625 C 4.578125 -6.34375 4.203125 -6.5625 3.671875 -6.5625 C 3.179688 -6.5625 2.800781 -6.359375 2.53125 -5.953125 C 2.257812 -5.546875 2.097656 -4.960938 2.046875 -4.203125 Z "/>
</g>
<g id="glyph-0-3">
</g>
<g id="glyph-0-4">
<path d="M 0.5 0 L 0.5 -0.5625 L 0.6875 -0.5625 C 0.976562 -0.5625 1.226562 -0.609375 1.4375 -0.703125 C 1.65625 -0.804688 1.765625 -1.054688 1.765625 -1.453125 L 1.765625 -8.046875 C 1.765625 -8.441406 1.65625 -8.691406 1.4375 -8.796875 C 1.226562 -8.898438 0.976562 -8.953125 0.6875 -8.953125 L 0.5 -8.953125 L 0.5 -9.515625 L 3.546875 -9.515625 L 6.296875 -1.890625 L 9.03125 -9.515625 L 12 -9.515625 L 12 -8.953125 L 11.828125 -8.953125 C 11.523438 -8.953125 11.265625 -8.894531 11.046875 -8.78125 C 10.835938 -8.675781 10.734375 -8.414062 10.734375 -8 L 10.734375 -1.515625 C 10.734375 -1.097656 10.835938 -0.832031 11.046875 -0.71875 C 11.265625 -0.613281 11.523438 -0.5625 11.828125 -0.5625 L 12 -0.5625 L 12 0 L 8.453125 0 L 8.453125 -0.5625 L 8.484375 -0.5625 C 8.773438 -0.5625 9.003906 -0.609375 9.171875 -0.703125 C 9.335938 -0.804688 9.429688 -1.039062 9.453125 -1.40625 L 9.453125 -8.515625 L 6.390625 0 L 5.671875 0 L 2.578125 -8.484375 L 2.578125 -1.515625 C 2.578125 -1.097656 2.660156 -0.832031 2.828125 -0.71875 C 3.003906 -0.613281 3.242188 -0.5625 3.546875 -0.5625 L 3.578125 -0.5625 L 3.578125 0 Z "/>
</g>
<g id="glyph-0-5">
<path d="M 2.734375 0.140625 C 2.140625 0.140625 1.644531 -0.03125 1.25 -0.375 C 0.863281 -0.726562 0.671875 -1.269531 0.671875 -2 C 0.671875 -2.707031 0.921875 -3.226562 1.421875 -3.5625 C 1.921875 -3.90625 2.679688 -4.09375 3.703125 -4.125 L 4.8125 -4.171875 L 4.8125 -4.96875 C 4.8125 -5.289062 4.785156 -5.570312 4.734375 -5.8125 C 4.679688 -6.0625 4.566406 -6.253906 4.390625 -6.390625 C 4.210938 -6.535156 3.941406 -6.609375 3.578125 -6.609375 C 3.234375 -6.609375 2.972656 -6.546875 2.796875 -6.421875 C 2.617188 -6.296875 2.5 -6.125 2.4375 -5.90625 C 2.382812 -5.6875 2.359375 -5.4375 2.359375 -5.15625 C 1.984375 -5.15625 1.695312 -5.21875 1.5 -5.34375 C 1.3125 -5.476562 1.21875 -5.695312 1.21875 -6 C 1.21875 -6.3125 1.328125 -6.5625 1.546875 -6.75 C 1.765625 -6.9375 2.054688 -7.070312 2.421875 -7.15625 C 2.785156 -7.238281 3.1875 -7.28125 3.625 -7.28125 C 4.4375 -7.28125 5.046875 -7.101562 5.453125 -6.75 C 5.859375 -6.40625 6.0625 -5.8125 6.0625 -4.96875 L 6.0625 -1.515625 C 6.0625 -1.140625 6.125 -0.882812 6.25 -0.75 C 6.375 -0.625 6.585938 -0.5625 6.890625 -0.5625 L 6.9375 -0.5625 L 6.9375 0 L 5.125 0 L 4.921875 -1.140625 L 4.8125 -1.140625 C 4.625 -0.890625 4.441406 -0.671875 4.265625 -0.484375 C 4.085938 -0.296875 3.878906 -0.144531 3.640625 -0.03125 C 3.410156 0.0820312 3.109375 0.140625 2.734375 0.140625 Z M 3.03125 -0.6875 C 3.582031 -0.6875 4.015625 -0.851562 4.328125 -1.1875 C 4.648438 -1.519531 4.8125 -1.972656 4.8125 -2.546875 L 4.8125 -3.625 L 3.953125 -3.578125 C 3.203125 -3.546875 2.679688 -3.394531 2.390625 -3.125 C 2.097656 -2.851562 1.953125 -2.457031 1.953125 -1.9375 C 1.953125 -1.101562 2.3125 -0.6875 3.03125 -0.6875 Z "/>
</g>
<g id="glyph-0-6">
<path d="M 3.078125 3.203125 C 2.148438 3.203125 1.457031 3.03125 1 2.6875 C 0.539062 2.34375 0.3125 1.863281 0.3125 1.25 C 0.3125 0.726562 0.476562 0.332031 0.8125 0.0625 C 1.144531 -0.195312 1.53125 -0.367188 1.96875 -0.453125 C 1.789062 -0.535156 1.625 -0.664062 1.46875 -0.84375 C 1.3125 -1.03125 1.234375 -1.265625 1.234375 -1.546875 C 1.234375 -1.816406 1.300781 -2.046875 1.4375 -2.234375 C 1.582031 -2.429688 1.804688 -2.617188 2.109375 -2.796875 C 1.722656 -2.953125 1.425781 -3.210938 1.21875 -3.578125 C 1.007812 -3.953125 0.90625 -4.363281 0.90625 -4.8125 C 0.90625 -5.570312 1.113281 -6.171875 1.53125 -6.609375 C 1.945312 -7.054688 2.570312 -7.28125 3.40625 -7.28125 C 3.726562 -7.28125 4.03125 -7.234375 4.3125 -7.140625 C 4.601562 -7.054688 4.8125 -6.957031 4.9375 -6.84375 C 5.0625 -6.976562 5.234375 -7.128906 5.453125 -7.296875 C 5.671875 -7.472656 5.925781 -7.5625 6.21875 -7.5625 C 6.488281 -7.5625 6.6875 -7.488281 6.8125 -7.34375 C 6.945312 -7.207031 7.015625 -7.046875 7.015625 -6.859375 C 7.015625 -6.671875 6.957031 -6.507812 6.84375 -6.375 C 6.726562 -6.238281 6.546875 -6.171875 6.296875 -6.171875 C 6.296875 -6.265625 6.265625 -6.363281 6.203125 -6.46875 C 6.148438 -6.570312 6.035156 -6.625 5.859375 -6.625 C 5.660156 -6.625 5.472656 -6.570312 5.296875 -6.46875 C 5.441406 -6.28125 5.5625 -6.054688 5.65625 -5.796875 C 5.757812 -5.546875 5.8125 -5.226562 5.8125 -4.84375 C 5.8125 -4.1875 5.613281 -3.640625 5.21875 -3.203125 C 4.820312 -2.773438 4.21875 -2.5625 3.40625 -2.5625 C 3.300781 -2.5625 3.179688 -2.566406 3.046875 -2.578125 C 2.910156 -2.585938 2.796875 -2.601562 2.703125 -2.625 C 2.535156 -2.539062 2.390625 -2.429688 2.265625 -2.296875 C 2.140625 -2.160156 2.078125 -1.988281 2.078125 -1.78125 C 2.078125 -1.625 2.128906 -1.5 2.234375 -1.40625 C 2.335938 -1.320312 2.5625 -1.28125 2.90625 -1.28125 L 4.40625 -1.28125 C 5.195312 -1.28125 5.757812 -1.09375 6.09375 -0.71875 C 6.4375 -0.34375 6.609375 0.128906 6.609375 0.703125 C 6.609375 1.472656 6.320312 2.082031 5.75 2.53125 C 5.175781 2.976562 4.285156 3.203125 3.078125 3.203125 Z M 3.375 -3.203125 C 3.8125 -3.203125 4.117188 -3.332031 4.296875 -3.59375 C 4.472656 -3.863281 4.5625 -4.285156 4.5625 -4.859375 C 4.5625 -5.460938 4.46875 -5.90625 4.28125 -6.1875 C 4.101562 -6.476562 3.796875 -6.625 3.359375 -6.625 C 2.929688 -6.625 2.625 -6.476562 2.4375 -6.1875 C 2.25 -5.894531 2.15625 -5.445312 2.15625 -4.84375 C 2.15625 -4.28125 2.25 -3.863281 2.4375 -3.59375 C 2.632812 -3.332031 2.945312 -3.203125 3.375 -3.203125 Z M 3.109375 2.546875 C 3.742188 2.546875 4.234375 2.472656 4.578125 2.328125 C 4.929688 2.191406 5.175781 2.003906 5.3125 1.765625 C 5.445312 1.523438 5.515625 1.25 5.515625 0.9375 C 5.515625 0.519531 5.398438 0.242188 5.171875 0.109375 C 4.941406 -0.0234375 4.601562 -0.09375 4.15625 -0.09375 L 2.859375 -0.09375 C 2.609375 -0.09375 2.367188 -0.0625 2.140625 0 C 1.921875 0.0703125 1.738281 0.195312 1.59375 0.375 C 1.457031 0.550781 1.390625 0.816406 1.390625 1.171875 C 1.390625 1.429688 1.4375 1.664062 1.53125 1.875 C 1.625 2.082031 1.796875 2.242188 2.046875 2.359375 C 2.296875 2.484375 2.648438 2.546875 3.109375 2.546875 Z "/>
</g>
<g id="glyph-0-7">
<path d="M 2.140625 -8.484375 C 1.929688 -8.484375 1.753906 -8.539062 1.609375 -8.65625 C 1.460938 -8.78125 1.390625 -8.992188 1.390625 -9.296875 C 1.390625 -9.609375 1.460938 -9.820312 1.609375 -9.9375 C 1.753906 -10.0625 1.929688 -10.125 2.140625 -10.125 C 2.347656 -10.125 2.523438 -10.0625 2.671875 -9.9375 C 2.828125 -9.820312 2.90625 -9.609375 2.90625 -9.296875 C 2.90625 -8.992188 2.828125 -8.78125 2.671875 -8.65625 C 2.523438 -8.539062 2.347656 -8.484375 2.140625 -8.484375 Z M 0.3125 0 L 0.3125 -0.5625 L 0.484375 -0.5625 C 0.773438 -0.5625 1.03125 -0.609375 1.25 -0.703125 C 1.46875 -0.804688 1.578125 -1.054688 1.578125 -1.453125 L 1.578125 -5.671875 C 1.578125 -6.066406 1.46875 -6.316406 1.25 -6.421875 C 1.03125 -6.523438 0.773438 -6.578125 0.484375 -6.578125 L 0.4375 -6.578125 L 0.4375 -7.140625 L 2.828125 -7.140625 L 2.828125 -1.515625 C 2.828125 -1.097656 2.929688 -0.832031 3.140625 -0.71875 C 3.359375 -0.613281 3.617188 -0.5625 3.921875 -0.5625 L 4.09375 -0.5625 L 4.09375 0 Z "/>
</g>
<g id="glyph-0-8">
<path d="M 3.765625 0.140625 C 3.179688 0.140625 2.660156 0.015625 2.203125 -0.234375 C 1.742188 -0.484375 1.382812 -0.875 1.125 -1.40625 C 0.863281 -1.945312 0.734375 -2.65625 0.734375 -3.53125 C 0.734375 -4.476562 0.863281 -5.222656 1.125 -5.765625 C 1.382812 -6.316406 1.738281 -6.707031 2.1875 -6.9375 C 2.632812 -7.164062 3.140625 -7.28125 3.703125 -7.28125 C 4.078125 -7.28125 4.441406 -7.226562 4.796875 -7.125 C 5.148438 -7.03125 5.441406 -6.882812 5.671875 -6.6875 C 5.910156 -6.488281 6.03125 -6.234375 6.03125 -5.921875 C 6.03125 -5.617188 5.925781 -5.398438 5.71875 -5.265625 C 5.519531 -5.140625 5.226562 -5.078125 4.84375 -5.078125 C 4.84375 -5.492188 4.765625 -5.851562 4.609375 -6.15625 C 4.453125 -6.457031 4.148438 -6.609375 3.703125 -6.609375 C 3.367188 -6.609375 3.070312 -6.519531 2.8125 -6.34375 C 2.5625 -6.164062 2.367188 -5.851562 2.234375 -5.40625 C 2.097656 -4.96875 2.03125 -4.347656 2.03125 -3.546875 C 2.03125 -2.597656 2.1875 -1.890625 2.5 -1.421875 C 2.8125 -0.960938 3.320312 -0.734375 4.03125 -0.734375 C 4.457031 -0.734375 4.820312 -0.816406 5.125 -0.984375 C 5.425781 -1.160156 5.65625 -1.390625 5.8125 -1.671875 C 5.957031 -1.546875 6.03125 -1.367188 6.03125 -1.140625 C 6.03125 -0.941406 5.945312 -0.742188 5.78125 -0.546875 C 5.613281 -0.347656 5.363281 -0.179688 5.03125 -0.046875 C 4.695312 0.078125 4.273438 0.140625 3.765625 0.140625 Z "/>
</g>
<g id="glyph-0-9">
<path d="M 3.828125 0.140625 C 2.867188 0.140625 2.113281 -0.164062 1.5625 -0.78125 C 1.007812 -1.394531 0.734375 -2.328125 0.734375 -3.578125 C 0.734375 -4.828125 0.992188 -5.753906 1.515625 -6.359375 C 2.046875 -6.972656 2.828125 -7.28125 3.859375 -7.28125 C 4.816406 -7.28125 5.570312 -6.972656 6.125 -6.359375 C 6.675781 -5.753906 6.953125 -4.828125 6.953125 -3.578125 C 6.953125 -2.328125 6.6875 -1.394531 6.15625 -0.78125 C 5.632812 -0.164062 4.859375 0.140625 3.828125 0.140625 Z M 3.859375 -0.5625 C 4.515625 -0.5625 4.976562 -0.816406 5.25 -1.328125 C 5.53125 -1.835938 5.671875 -2.585938 5.671875 -3.578125 C 5.671875 -4.578125 5.53125 -5.328125 5.25 -5.828125 C 4.976562 -6.328125 4.507812 -6.578125 3.84375 -6.578125 C 3.175781 -6.578125 2.707031 -6.328125 2.4375 -5.828125 C 2.164062 -5.328125 2.03125 -4.578125 2.03125 -3.578125 C 2.03125 -2.585938 2.164062 -1.835938 2.4375 -1.328125 C 2.71875 -0.816406 3.191406 -0.5625 3.859375 -0.5625 Z "/>
</g>
<g id="glyph-0-10">
<path d="M 0.359375 0 L 0.359375 -0.5625 L 0.53125 -0.5625 C 0.832031 -0.5625 1.085938 -0.613281 1.296875 -0.71875 C 1.515625 -0.832031 1.625 -1.097656 1.625 -1.515625 L 1.625 -6.515625 L 0.40625 -6.515625 L 0.40625 -7.140625 L 1.625 -7.140625 L 1.625 -7.8125 C 1.625 -8.601562 1.832031 -9.207031 2.25 -9.625 C 2.675781 -10.050781 3.253906 -10.265625 3.984375 -10.265625 C 4.679688 -10.265625 5.164062 -10.175781 5.4375 -10 C 5.707031 -9.832031 5.84375 -9.609375 5.84375 -9.328125 C 5.84375 -9.085938 5.738281 -8.898438 5.53125 -8.765625 C 5.332031 -8.640625 5.078125 -8.578125 4.765625 -8.578125 C 4.765625 -8.847656 4.703125 -9.09375 4.578125 -9.3125 C 4.453125 -9.539062 4.21875 -9.65625 3.875 -9.65625 C 3.5 -9.65625 3.238281 -9.503906 3.09375 -9.203125 C 2.945312 -8.910156 2.875 -8.488281 2.875 -7.9375 L 2.875 -7.140625 L 4.765625 -7.140625 L 4.765625 -6.515625 L 2.875 -6.515625 L 2.875 -1.515625 C 2.875 -1.097656 2.976562 -0.832031 3.1875 -0.71875 C 3.40625 -0.613281 3.664062 -0.5625 3.96875 -0.5625 L 4.484375 -0.5625 L 4.484375 0 Z "/>
</g>
<g id="glyph-0-11">
<path d="M 0.5 0 L 0.5 -0.5625 L 0.6875 -0.5625 C 0.988281 -0.5625 1.242188 -0.613281 1.453125 -0.71875 C 1.660156 -0.832031 1.765625 -1.097656 1.765625 -1.515625 L 1.765625 -8.046875 C 1.765625 -8.441406 1.65625 -8.691406 1.4375 -8.796875 C 1.226562 -8.898438 0.976562 -8.953125 0.6875 -8.953125 L 0.5 -8.953125 L 0.5 -9.515625 L 4.25 -9.515625 C 5.375 -9.515625 6.203125 -9.265625 6.734375 -8.765625 C 7.265625 -8.273438 7.53125 -7.597656 7.53125 -6.734375 C 7.53125 -6.203125 7.414062 -5.707031 7.1875 -5.25 C 6.957031 -4.789062 6.582031 -4.414062 6.0625 -4.125 C 5.539062 -3.84375 4.835938 -3.703125 3.953125 -3.703125 L 3.125 -3.703125 L 3.125 -1.453125 C 3.125 -1.054688 3.226562 -0.804688 3.4375 -0.703125 C 3.65625 -0.609375 3.914062 -0.5625 4.21875 -0.5625 L 4.65625 -0.5625 L 4.65625 0 Z M 3.828125 -4.328125 C 4.628906 -4.328125 5.207031 -4.503906 5.5625 -4.859375 C 5.914062 -5.222656 6.09375 -5.828125 6.09375 -6.671875 C 6.09375 -7.421875 5.9375 -7.972656 5.625 -8.328125 C 5.3125 -8.691406 4.78125 -8.875 4.03125 -8.875 L 3.125 -8.875 L 3.125 -4.328125 Z "/>
</g>
<g id="glyph-0-12">
<path d="M 4.1875 1.703125 C 3.363281 1.378906 2.703125 0.960938 2.203125 0.453125 C 1.703125 -0.0546875 1.335938 -0.695312 1.109375 -1.46875 C 0.878906 -2.238281 0.765625 -3.15625 0.765625 -4.21875 C 0.765625 -5.289062 0.878906 -6.207031 1.109375 -6.96875 C 1.335938 -7.726562 1.703125 -8.363281 2.203125 -8.875 C 2.703125 -9.394531 3.363281 -9.8125 4.1875 -10.125 L 4.1875 -9.53125 C 3.570312 -9.164062 3.117188 -8.703125 2.828125 -8.140625 C 2.546875 -7.578125 2.359375 -6.960938 2.265625 -6.296875 C 2.179688 -5.628906 2.140625 -4.9375 2.140625 -4.21875 C 2.140625 -3.519531 2.179688 -2.832031 2.265625 -2.15625 C 2.359375 -1.476562 2.546875 -0.859375 2.828125 -0.296875 C 3.117188 0.253906 3.570312 0.71875 4.1875 1.09375 Z "/>
</g>
<g id="glyph-0-13">
<path d="M 6.59375 0.109375 C 6.207031 0.109375 5.894531 -0.015625 5.65625 -0.265625 C 5.414062 -0.515625 5.296875 -0.921875 5.296875 -1.484375 C 5.296875 -1.734375 5.304688 -2.050781 5.328125 -2.4375 C 5.359375 -2.832031 5.390625 -3.234375 5.421875 -3.640625 C 5.453125 -4.054688 5.476562 -4.445312 5.5 -4.8125 C 5.53125 -5.175781 5.554688 -5.46875 5.578125 -5.6875 C 5.597656 -5.914062 5.609375 -6.03125 5.609375 -6.03125 L 3.0625 -6.03125 L 2.890625 -2.265625 C 2.859375 -1.492188 2.710938 -0.921875 2.453125 -0.546875 C 2.203125 -0.179688 1.765625 0 1.140625 0 L 0.578125 0 L 0.578125 -0.5625 C 0.921875 -0.5625 1.207031 -0.703125 1.4375 -0.984375 C 1.664062 -1.265625 1.828125 -1.796875 1.921875 -2.578125 L 2.3125 -6.03125 L 1.796875 -6.03125 C 1.535156 -6.03125 1.34375 -5.953125 1.21875 -5.796875 C 1.101562 -5.648438 1.023438 -5.453125 0.984375 -5.203125 L 0.421875 -5.203125 C 0.421875 -5.554688 0.46875 -5.878906 0.5625 -6.171875 C 0.664062 -6.460938 0.828125 -6.695312 1.046875 -6.875 C 1.265625 -7.050781 1.550781 -7.140625 1.90625 -7.140625 L 7.84375 -7.140625 L 7.84375 -6.03125 L 6.375 -6.03125 C 6.375 -6.03125 6.367188 -5.921875 6.359375 -5.703125 C 6.359375 -5.492188 6.351562 -5.222656 6.34375 -4.890625 C 6.332031 -4.554688 6.320312 -4.191406 6.3125 -3.796875 C 6.300781 -3.410156 6.296875 -3.035156 6.296875 -2.671875 C 6.296875 -2.304688 6.296875 -1.992188 6.296875 -1.734375 C 6.296875 -1.429688 6.332031 -1.207031 6.40625 -1.0625 C 6.488281 -0.914062 6.585938 -0.816406 6.703125 -0.765625 C 6.828125 -0.722656 6.953125 -0.703125 7.078125 -0.703125 C 7.171875 -0.703125 7.257812 -0.710938 7.34375 -0.734375 C 7.4375 -0.753906 7.523438 -0.78125 7.609375 -0.8125 L 7.609375 -0.203125 C 7.503906 -0.109375 7.359375 -0.0351562 7.171875 0.015625 C 6.992188 0.078125 6.800781 0.109375 6.59375 0.109375 Z "/>
</g>
<g id="glyph-0-14">
<path d="M 0.421875 1.09375 C 1.035156 0.71875 1.488281 0.253906 1.78125 -0.296875 C 2.070312 -0.859375 2.257812 -1.476562 2.34375 -2.15625 C 2.425781 -2.832031 2.46875 -3.519531 2.46875 -4.21875 C 2.46875 -4.9375 2.425781 -5.628906 2.34375 -6.296875 C 2.257812 -6.960938 2.070312 -7.578125 1.78125 -8.140625 C 1.488281 -8.703125 1.035156 -9.164062 0.421875 -9.53125 L 0.421875 -10.125 C 1.242188 -9.8125 1.90625 -9.394531 2.40625 -8.875 C 2.90625 -8.363281 3.269531 -7.726562 3.5 -6.96875 C 3.738281 -6.207031 3.859375 -5.289062 3.859375 -4.21875 C 3.859375 -3.15625 3.738281 -2.238281 3.5 -1.46875 C 3.269531 -0.695312 2.90625 -0.0546875 2.40625 0.453125 C 1.90625 0.960938 1.242188 1.378906 0.421875 1.703125 Z "/>
</g>
</g>
</defs>
<g fill="rgb(100%, 100%, 100%)" fill-opacity="1">
<use xlink:href="#glyph-0-0" x="30" y="34.25293"/>
<use xlink:href="#glyph-0-1" x="38" y="34.25293"/>
<use xlink:href="#glyph-0-2" x="46" y="34.25293"/>
<use xlink:href="#glyph-0-3" x="53" y="34.25293"/>
<use xlink:href="#glyph-0-4" x="56" y="34.25293"/>
<use xlink:href="#glyph-0-5" x="69" y="34.25293"/>
<use xlink:href="#glyph-0-6" x="77" y="34.25293"/>
<use xlink:href="#glyph-0-7" x="84" y="34.25293"/>
<use xlink:href="#glyph-0-8" x="88" y="34.25293"/>
<use xlink:href="#glyph-0-3" x="95" y="34.25293"/>
<use xlink:href="#glyph-0-9" x="98" y="34.25293"/>
<use xlink:href="#glyph-0-10" x="106" y="34.25293"/>
<use xlink:href="#glyph-0-3" x="111" y="34.25293"/>
<use xlink:href="#glyph-0-11" x="114" y="34.25293"/>
<use xlink:href="#glyph-0-7" x="122" y="34.25293"/>
<use xlink:href="#glyph-0-3" x="126" y="34.25293"/>
<use xlink:href="#glyph-0-12" x="129" y="34.25293"/>
</g>
<g fill="rgb(100%, 100%, 100%)" fill-opacity="1">
<use xlink:href="#glyph-0-13" x="134" y="34.25293"/>
</g>
<g fill="rgb(100%, 100%, 100%)" fill-opacity="1">
<use xlink:href="#glyph-0-14" x="142" y="34.25293"/>
</g>
</svg>
