<?xml version="1.0" encoding="UTF-8"?>
<svg xmlns="http://www.w3.org/2000/svg" xmlns:xlink="http://www.w3.org/1999/xlink" width="3840" height="2160" viewBox="0 0 3840 2160">
<defs>
<g>
<g id="glyph-0-0">
<path d="M 3.609375 0.09375 C 2.953125 0.09375 2.394531 -0.0546875 1.9375 -0.359375 C 1.488281 -0.660156 1.144531 -1.085938 0.90625 -1.640625 C 0.675781 -2.191406 0.5625 -2.835938 0.5625 -3.578125 C 0.5625 -4.296875 0.679688 -4.929688 0.921875 -5.484375 C 1.171875 -6.035156 1.535156 -6.460938 2.015625 -6.765625 C 2.492188 -7.078125 3.082031 -7.234375 3.78125 -7.234375 C 4.457031 -7.234375 4.960938 -7.125 5.296875 -6.90625 C 5.628906 -6.695312 5.796875 -6.4375 5.796875 -6.125 C 5.796875 -5.90625 5.710938 -5.734375 5.546875 -5.609375 C 5.378906 -5.484375 5.175781 -5.421875 4.9375 -5.421875 C 4.9375 -5.628906 4.894531 -5.828125 4.8125 -6.015625 C 4.738281 -6.210938 4.617188 -6.375 4.453125 -6.5 C 4.285156 -6.632812 4.054688 -6.703125 3.765625 -6.703125 C 3.003906 -6.703125 2.46875 -6.429688 2.15625 -5.890625 C 1.84375 -5.347656 1.6875 -4.578125 1.6875 -3.578125 C 1.6875 -2.984375 1.753906 -2.457031 1.890625 -2 C 2.035156 -1.539062 2.257812 -1.1875 2.5625 -0.9375 C 2.875 -0.6875 3.273438 -0.5625 3.765625 -0.5625 C 4.242188 -0.5625 4.617188 -0.644531 4.890625 -0.8125 C 5.171875 -0.976562 5.394531 -1.175781 5.5625 -1.40625 C 5.625 -1.375 5.671875 -1.328125 5.703125 -1.265625 C 5.742188 -1.203125 5.765625 -1.117188 5.765625 -1.015625 C 5.765625 -0.847656 5.6875 -0.675781 5.53125 -0.5 C 5.375 -0.332031 5.132812 -0.191406 4.8125 -0.078125 C 4.5 0.0351562 4.097656 0.09375 3.609375 0.09375 Z "/>
</g>
<g id="glyph-0-1">
<path d="M 1.609375 -6.359375 C 1.453125 -6.359375 1.316406 -6.40625 1.203125 -6.5 C 1.097656 -6.59375 1.046875 -6.753906 1.046875 -6.984375 C 1.046875 -7.210938 1.097656 -7.367188 1.203125 -7.453125 C 1.316406 -7.546875 1.453125 -7.59375 1.609375 -7.59375 C 1.765625 -7.59375 1.898438 -7.546875 2.015625 -7.453125 C 2.128906 -7.367188 2.1875 -7.210938 2.1875 -6.984375 C 2.1875 -6.753906 2.128906 -6.59375 2.015625 -6.5 C 1.898438 -6.40625 1.765625 -6.359375 1.609375 -6.359375 Z M 0.234375 0 L 0.234375 -0.421875 L 0.359375 -0.421875 C 0.578125 -0.421875 0.769531 -0.457031 0.9375 -0.53125 C 1.101562 -0.613281 1.1875 -0.800781 1.1875 -1.09375 L 1.1875 -4.265625 C 1.1875 -4.554688 1.101562 -4.738281 0.9375 -4.8125 C 0.769531 -4.894531 0.578125 -4.9375 0.359375 -4.9375 L 0.328125 -4.9375 L 0.328125 -5.359375 L 2.125 -5.359375 L 2.125 -1.140625 C 2.125 -0.828125 2.203125 -0.628906 2.359375 -0.546875 C 2.515625 -0.460938 2.707031 -0.421875 2.9375 -0.421875 L 3.0625 -0.421875 L 3.0625 0 Z "/>
</g>
<g id="glyph-0-2">
<path d="M 0.328125 0 L 0.328125 -0.421875 L 0.359375 -0.421875 C 0.585938 -0.421875 0.78125 -0.460938 0.9375 -0.546875 C 1.101562 -0.628906 1.1875 -0.828125 1.1875 -1.140625 L 1.1875 -4.265625 C 1.1875 -4.554688 1.101562 -4.738281 0.9375 -4.8125 C 0.769531 -4.894531 0.578125 -4.9375 0.359375 -4.9375 L 0.328125 -4.9375 L 0.328125 -5.359375 L 1.875 -5.359375 L 2.0625 -4.375 L 2.109375 -4.375 C 2.191406 -4.570312 2.285156 -4.753906 2.390625 -4.921875 C 2.492188 -5.085938 2.628906 -5.21875 2.796875 -5.3125 C 2.960938 -5.40625 3.191406 -5.453125 3.484375 -5.453125 C 3.847656 -5.453125 4.117188 -5.390625 4.296875 -5.265625 C 4.472656 -5.140625 4.5625 -4.960938 4.5625 -4.734375 C 4.5625 -4.523438 4.488281 -4.351562 4.34375 -4.21875 C 4.195312 -4.082031 3.957031 -4.015625 3.625 -4.015625 C 3.625 -4.296875 3.582031 -4.492188 3.5 -4.609375 C 3.425781 -4.734375 3.289062 -4.796875 3.09375 -4.796875 C 2.90625 -4.796875 2.75 -4.722656 2.625 -4.578125 C 2.5 -4.429688 2.398438 -4.242188 2.328125 -4.015625 C 2.253906 -3.796875 2.203125 -3.5625 2.171875 -3.3125 C 2.140625 -3.070312 2.125 -2.851562 2.125 -2.65625 L 2.125 -1.09375 C 2.125 -0.800781 2.203125 -0.613281 2.359375 -0.53125 C 2.523438 -0.457031 2.71875 -0.421875 2.9375 -0.421875 L 3.21875 -0.421875 L 3.21875 0 Z "/>
</g>
<g id="glyph-0-3">
<path d="M 2.828125 0.09375 C 2.390625 0.09375 2 0.00390625 1.65625 -0.171875 C 1.3125 -0.359375 1.039062 -0.65625 0.84375 -1.0625 C 0.644531 -1.46875 0.546875 -2 0.546875 -2.65625 C 0.546875 -3.363281 0.644531 -3.921875 0.84375 -4.328125 C 1.039062 -4.742188 1.304688 -5.035156 1.640625 -5.203125 C 1.984375 -5.367188 2.363281 -5.453125 2.78125 -5.453125 C 3.0625 -5.453125 3.332031 -5.414062 3.59375 -5.34375 C 3.863281 -5.269531 4.082031 -5.160156 4.25 -5.015625 C 4.425781 -4.867188 4.515625 -4.675781 4.515625 -4.4375 C 4.515625 -4.207031 4.4375 -4.046875 4.28125 -3.953125 C 4.132812 -3.859375 3.914062 -3.8125 3.625 -3.8125 C 3.625 -4.125 3.566406 -4.390625 3.453125 -4.609375 C 3.335938 -4.835938 3.113281 -4.953125 2.78125 -4.953125 C 2.53125 -4.953125 2.304688 -4.882812 2.109375 -4.75 C 1.921875 -4.625 1.773438 -4.394531 1.671875 -4.0625 C 1.566406 -3.726562 1.515625 -3.257812 1.515625 -2.65625 C 1.515625 -1.945312 1.632812 -1.414062 1.875 -1.0625 C 2.113281 -0.71875 2.5 -0.546875 3.03125 -0.546875 C 3.34375 -0.546875 3.613281 -0.609375 3.84375 -0.734375 C 4.070312 -0.867188 4.242188 -1.039062 4.359375 -1.25 C 4.472656 -1.15625 4.53125 -1.023438 4.53125 -0.859375 C 4.53125 -0.703125 4.46875 -0.550781 4.34375 -0.40625 C 4.21875 -0.257812 4.03125 -0.140625 3.78125 -0.046875 C 3.53125 0.046875 3.210938 0.09375 2.828125 0.09375 Z "/>
</g>
<g id="glyph-0-4">
<path d="M 2.734375 0.09375 C 2.203125 0.09375 1.789062 -0.0546875 1.5 -0.359375 C 1.21875 -0.671875 1.078125 -1.171875 1.078125 -1.859375 L 1.078125 -4.265625 C 1.078125 -4.554688 0.992188 -4.738281 0.828125 -4.8125 C 0.671875 -4.894531 0.484375 -4.9375 0.265625 -4.9375 L 0.234375 -4.9375 L 0.234375 -5.359375 L 2.015625 -5.359375 L 2.015625 -1.90625 C 2.015625 -1.476562 2.085938 -1.144531 2.234375 -0.90625 C 2.378906 -0.664062 2.65625 -0.546875 3.0625 -0.546875 C 3.507812 -0.546875 3.832031 -0.691406 4.03125 -0.984375 C 4.226562 -1.285156 4.328125 -1.675781 4.328125 -2.15625 L 4.328125 -4.21875 C 4.328125 -4.53125 4.242188 -4.726562 4.078125 -4.8125 C 3.921875 -4.894531 3.734375 -4.9375 3.515625 -4.9375 L 3.484375 -4.9375 L 3.484375 -5.359375 L 5.265625 -5.359375 L 5.265625 -1.09375 C 5.265625 -0.800781 5.347656 -0.613281 5.515625 -0.53125 C 5.679688 -0.457031 5.875 -0.421875 6.09375 -0.421875 L 6.125 -0.421875 L 6.125 0 L 4.53125 0 L 4.40625 -0.8125 L 4.34375 -0.8125 C 4.144531 -0.4375 3.90625 -0.191406 3.625 -0.078125 C 3.351562 0.0351562 3.054688 0.09375 2.734375 0.09375 Z "/>
</g>
<g id="glyph-0-5">
<path d="M 0.28125 0 L 0.28125 -0.421875 L 0.40625 -0.421875 C 0.632812 -0.421875 0.820312 -0.460938 0.96875 -0.546875 C 1.113281 -0.628906 1.1875 -0.828125 1.1875 -1.140625 L 1.1875 -4.265625 C 1.1875 -4.554688 1.109375 -4.738281 0.953125 -4.8125 C 0.804688 -4.894531 0.625 -4.9375 0.40625 -4.9375 L 0.375 -4.9375 L 0.375 -5.359375 L 1.953125 -5.359375 L 2.078125 -4.546875 L 2.125 -4.546875 C 2.332031 -4.921875 2.5625 -5.164062 2.8125 -5.28125 C 3.0625 -5.394531 3.335938 -5.453125 3.640625 -5.453125 C 3.960938 -5.453125 4.253906 -5.382812 4.515625 -5.25 C 4.773438 -5.113281 4.96875 -4.878906 5.09375 -4.546875 L 5.171875 -4.546875 C 5.367188 -4.921875 5.601562 -5.164062 5.875 -5.28125 C 6.144531 -5.394531 6.429688 -5.453125 6.734375 -5.453125 C 7.253906 -5.453125 7.65625 -5.296875 7.9375 -4.984375 C 8.226562 -4.679688 8.375 -4.1875 8.375 -3.5 L 8.375 -1.140625 C 8.375 -0.828125 8.441406 -0.628906 8.578125 -0.546875 C 8.722656 -0.460938 8.910156 -0.421875 9.140625 -0.421875 L 9.171875 -0.421875 L 9.171875 0 L 7.4375 0 L 7.4375 -3.453125 C 7.4375 -3.878906 7.351562 -4.210938 7.1875 -4.453125 C 7.03125 -4.691406 6.757812 -4.8125 6.375 -4.8125 C 6.101562 -4.8125 5.882812 -4.742188 5.71875 -4.609375 C 5.5625 -4.472656 5.445312 -4.289062 5.375 -4.0625 C 5.300781 -3.84375 5.265625 -3.597656 5.265625 -3.328125 L 5.265625 -1.140625 C 5.265625 -0.828125 5.335938 -0.628906 5.484375 -0.546875 C 5.628906 -0.460938 5.816406 -0.421875 6.046875 -0.421875 L 6.0625 -0.421875 L 6.0625 0 L 4.328125 0 L 4.328125 -3.453125 C 4.328125 -3.878906 4.25 -4.210938 4.09375 -4.453125 C 3.9375 -4.691406 3.664062 -4.8125 3.28125 -4.8125 C 2.988281 -4.8125 2.757812 -4.738281 2.59375 -4.59375 C 2.425781 -4.445312 2.304688 -4.25 2.234375 -4 C 2.160156 -3.75 2.125 -3.484375 2.125 -3.203125 L 2.125 -1.09375 C 2.125 -0.800781 2.203125 -0.613281 2.359375 -0.53125 C 2.523438 -0.457031 2.71875 -0.421875 2.9375 -0.421875 L 2.96875 -0.421875 L 2.96875 0 Z "/>
</g>
<g id="glyph-0-6">
<path d="M 0.265625 0 L 0.265625 -0.421875 L 0.40625 -0.421875 C 0.625 -0.421875 0.8125 -0.460938 0.96875 -0.546875 C 1.132812 -0.628906 1.21875 -0.828125 1.21875 -1.140625 L 1.21875 -4.890625 L 0.3125 -4.890625 L 0.3125 -5.359375 L 1.21875 -5.359375 L 1.21875 -5.859375 C 1.21875 -6.453125 1.375 -6.90625 1.6875 -7.21875 C 2.007812 -7.539062 2.441406 -7.703125 2.984375 -7.703125 C 3.503906 -7.703125 3.867188 -7.632812 4.078125 -7.5 C 4.285156 -7.375 4.390625 -7.207031 4.390625 -7 C 4.390625 -6.820312 4.3125 -6.679688 4.15625 -6.578125 C 4.007812 -6.484375 3.8125 -6.4375 3.5625 -6.4375 C 3.5625 -6.632812 3.515625 -6.816406 3.421875 -6.984375 C 3.335938 -7.148438 3.164062 -7.234375 2.90625 -7.234375 C 2.625 -7.234375 2.425781 -7.125 2.3125 -6.90625 C 2.207031 -6.6875 2.15625 -6.367188 2.15625 -5.953125 L 2.15625 -5.359375 L 3.5625 -5.359375 L 3.5625 -4.890625 L 2.15625 -4.890625 L 2.15625 -1.140625 C 2.15625 -0.828125 2.234375 -0.628906 2.390625 -0.546875 C 2.554688 -0.460938 2.753906 -0.421875 2.984375 -0.421875 L 3.359375 -0.421875 L 3.359375 0 Z "/>
</g>
<g id="glyph-0-7">
<path d="M 2.875 0.09375 C 2.144531 0.09375 1.570312 -0.144531 1.15625 -0.625 C 0.75 -1.101562 0.546875 -1.773438 0.546875 -2.640625 C 0.546875 -3.578125 0.738281 -4.28125 1.125 -4.75 C 1.507812 -5.21875 2.054688 -5.453125 2.765625 -5.453125 C 3.410156 -5.453125 3.914062 -5.253906 4.28125 -4.859375 C 4.65625 -4.460938 4.84375 -3.863281 4.84375 -3.0625 L 4.84375 -2.609375 L 1.515625 -2.609375 C 1.535156 -1.878906 1.671875 -1.347656 1.921875 -1.015625 C 2.171875 -0.691406 2.535156 -0.53125 3.015625 -0.53125 C 3.359375 -0.53125 3.648438 -0.597656 3.890625 -0.734375 C 4.140625 -0.878906 4.320312 -1.046875 4.4375 -1.234375 C 4.488281 -1.210938 4.53125 -1.171875 4.5625 -1.109375 C 4.601562 -1.046875 4.625 -0.972656 4.625 -0.890625 C 4.625 -0.753906 4.5625 -0.609375 4.4375 -0.453125 C 4.3125 -0.304688 4.117188 -0.175781 3.859375 -0.0625 C 3.597656 0.0390625 3.269531 0.09375 2.875 0.09375 Z M 3.84375 -3.15625 C 3.84375 -3.6875 3.757812 -4.113281 3.59375 -4.4375 C 3.425781 -4.757812 3.144531 -4.921875 2.75 -4.921875 C 2.382812 -4.921875 2.097656 -4.769531 1.890625 -4.46875 C 1.691406 -4.164062 1.578125 -3.726562 1.546875 -3.15625 Z "/>
</g>
<g id="glyph-0-8">
<path d="M 0.28125 0 L 0.28125 -0.421875 L 0.359375 -0.421875 C 0.585938 -0.421875 0.78125 -0.460938 0.9375 -0.546875 C 1.101562 -0.628906 1.1875 -0.828125 1.1875 -1.140625 L 1.1875 -4.265625 C 1.1875 -4.554688 1.101562 -4.738281 0.9375 -4.8125 C 0.78125 -4.894531 0.59375 -4.9375 0.375 -4.9375 L 0.328125 -4.9375 L 0.328125 -5.359375 L 1.953125 -5.359375 L 2.078125 -4.546875 L 2.125 -4.546875 C 2.332031 -4.921875 2.5625 -5.164062 2.8125 -5.28125 C 3.070312 -5.394531 3.363281 -5.453125 3.6875 -5.453125 C 4.21875 -5.453125 4.628906 -5.296875 4.921875 -4.984375 C 5.222656 -4.679688 5.375 -4.1875 5.375 -3.5 L 5.375 -1.140625 C 5.375 -0.828125 5.441406 -0.628906 5.578125 -0.546875 C 5.710938 -0.460938 5.894531 -0.421875 6.125 -0.421875 L 6.171875 -0.421875 L 6.171875 0 L 4.4375 0 L 4.4375 -3.453125 C 4.4375 -3.878906 4.351562 -4.210938 4.1875 -4.453125 C 4.019531 -4.691406 3.734375 -4.8125 3.328125 -4.8125 C 3.023438 -4.8125 2.785156 -4.738281 2.609375 -4.59375 C 2.429688 -4.445312 2.304688 -4.25 2.234375 -4 C 2.160156 -3.75 2.125 -3.484375 2.125 -3.203125 L 2.125 -1.09375 C 2.125 -0.800781 2.203125 -0.613281 2.359375 -0.53125 C 2.515625 -0.457031 2.703125 -0.421875 2.921875 -0.421875 L 2.96875 -0.421875 L 2.96875 0 Z "/>
</g>
</g>
</defs>
<g fill="rgb(96.862745%, 85.098039%, 43.529412%)" fill-opacity="1">
<use xlink:href="#glyph-0-0" x="30" y="30.69043"/>
<use xlink:href="#glyph-0-1" x="36" y="30.69043"/>
<use xlink:href="#glyph-0-2" x="39" y="30.69043"/>
<use xlink:href="#glyph-0-3" x="44" y="30.69043"/>
<use xlink:href="#glyph-0-4" x="49" y="30.69043"/>
<use xlink:href="#glyph-0-5" x="55" y="30.69043"/>
<use xlink:href="#glyph-0-6" x="64" y="30.69043"/>
<use xlink:href="#glyph-0-7" x="68" y="30.69043"/>
<use xlink:href="#glyph-0-2" x="73" y="30.69043"/>
<use xlink:href="#glyph-0-7" x="78" y="30.69043"/>
<use xlink:href="#glyph-0-8" x="83" y="30.69043"/>
<use xlink:href="#glyph-0-3" x="89" y="30.69043"/>
<use xlink:href="#glyph-0-7" x="94" y="30.69043"/>
</g>
</svg>
